<svg xmlns="http://www.w3.org/2000/svg" width="1872" height="1123" overflow="hidden"><defs><clipPath id="a"><path d="M502 1167h1872v1123H502z"/></clipPath><clipPath id="b"><path d="M501 1358h1873v742H501z"/></clipPath><clipPath id="c"><path d="M501 1358h1873v742H501z"/></clipPath><clipPath id="d"><path d="M501 1358h1873v742H501z"/></clipPath></defs><g clip-path="url(#a)" transform="translate(-502 -1167)"><path fill="#E50111" fill-rule="evenodd" d="M1055.85 1634.26H842.767v58.56h213.083l11.4-2.3c10.51-4.45 17.88-14.85 17.88-26.98 0-16.17-13.11-29.28-29.28-29.28Zm684.65-84.43h233.45c98.18 0 177.77 79.57 177.77 177.73s-79.59 177.73-177.77 177.73h-132.76v-84.43h133c51.54 0 93.32-41.77 93.32-93.3 0-51.53-41.78-93.3-93.32-93.3H1824.7v271.04h-84.2Zm-519.09 0h84.21v119.35c0 13.79 11.18 24.97 24.97 24.97h60.17v74.84h-74.47c-52.4 0-94.88-42.47-94.88-94.87Zm-462.848 0h304.068c58.69 0 106.26 47.56 106.26 106.24 0 27.5-10.45 52.56-27.6 71.43l-.32.31 9.77 11.85c11.46 16.95 18.15 37.39 18.15 59.4 0 58.67-47.57 106.23-106.26 106.23H860.141v-84.43h195.709c16.17 0 29.28-13.1 29.28-29.27 0-12.13-7.37-22.54-17.88-26.98l-11.4-2.3H842.767v142.99h-84.205Zm838.808 0h84.2v124.29c0 52.4-42.48 94.87-94.88 94.87h-94.79v136.3h-84.21v-211.14h164.7c13.79 0 24.98-11.18 24.98-24.97v-12.44ZM1438 1252.68c-484.169 0-876.666 213.03-876.666 475.82 0 262.79 392.497 475.82 876.666 475.82 484.17 0 876.67-213.03 876.67-475.82 0-262.79-392.5-475.82-876.67-475.82Zm0-85.68c516.94 0 936 251.39 936 561.5S1954.94 2290 1438 2290c-516.939 0-936-251.39-936-561.5S921.061 1167 1438 1167Z"/></g></svg>